<?xml version="1.0" standalone="no"?>
<!DOCTYPE svg PUBLIC "-//W3C//DTD SVG 20010904//EN"
 "http://www.w3.org/TR/2001/REC-SVG-20010904/DTD/svg10.dtd">
<svg version="1.0" xmlns="http://www.w3.org/2000/svg"
 width="1200.000000pt" height="1200.000000pt" viewBox="0 0 1200.000000 1200.000000"
 preserveAspectRatio="xMidYMid meet">
<metadata>
Created by potrace 1.14, written by Peter Selinger 2001-2017
</metadata>
<g transform="translate(0.000000,1200.000000) scale(0.100000,-0.100000)"
fill="#000000" stroke="none">
<path d="M1279 7758 c-1 -7 -3 -83 -4 -168 -2 -85 -3 -161 -4 -167 -1 -10 -42
-13 -170 -13 -127 0 -170 -3 -172 -12 -2 -7 -2 -60 1 -118 l5 -105 169 0 170
0 0 -172 0 -173 28 -1 c36 -1 94 -1 161 0 l52 1 0 172 0 173 170 0 170 0 1
118 2 117 -172 0 -172 0 -1 160 c-1 204 0 193 -18 187 -8 -4 -17 -2 -19 2 -3
5 -23 5 -45 1 -22 -4 -45 -4 -52 0 -6 4 -24 4 -39 0 -15 -4 -34 -3 -43 2 -12
6 -17 5 -18 -4z"/>
<path d="M10359 6820 c-1 -21 -1 -978 0 -1017 l1 -33 60 0 61 0 -1 58 c0 130
0 202 1 210 1 4 0 12 -1 17 -1 6 -1 42 -1 80 1 39 1 77 1 85 0 8 0 41 0 73 0
31 1 61 1 65 1 4 0 10 -1 15 -1 7 -2 117 -1 157 2 42 20 25 63 -60 7 -14 15
-27 19 -30 3 -3 8 -10 10 -15 3 -9 178 -307 220 -375 30 -49 134 -229 146
-252 13 -26 19 -28 74 -28 l59 0 0 530 0 530 -60 0 c-50 0 -60 -3 -61 -17 0
-10 -1 -191 -1 -402 l0 -384 -31 49 c-28 44 -113 190 -141 239 -6 11 -50 85
-97 165 -95 160 -123 207 -171 292 l-32 56 -58 4 c-46 2 -58 0 -59 -12z"/>
<path d="M1860 6821 c0 -5 7 -45 15 -88 9 -43 18 -91 20 -108 3 -16 7 -41 10
-55 4 -14 8 -34 10 -45 2 -11 13 -69 25 -130 27 -140 28 -144 46 -245 9 -47
18 -94 20 -105 3 -11 9 -42 14 -70 6 -27 12 -61 15 -75 3 -14 8 -41 11 -60 12
-72 10 -70 79 -70 l63 0 6 33 c3 17 7 37 8 42 0 6 5 26 10 45 5 19 11 44 13
55 1 11 8 47 15 80 7 33 13 67 15 75 9 57 17 97 22 110 3 8 7 24 8 35 3 22 8
46 24 118 6 26 14 64 17 85 3 20 10 55 16 77 l11 40 18 -80 c10 -44 20 -91 23
-105 2 -14 14 -72 26 -130 12 -58 24 -118 27 -135 3 -16 6 -34 8 -40 1 -5 5
-28 9 -50 4 -22 12 -53 16 -70 5 -16 11 -46 14 -65 9 -57 16 -94 21 -107 3 -9
26 -13 68 -13 l64 0 13 73 c7 39 14 79 15 87 2 8 10 51 19 95 9 44 23 114 31
155 8 41 17 89 20 105 3 17 7 41 10 55 3 14 8 41 11 60 3 19 7 43 10 52 3 10
7 30 10 45 8 46 33 176 39 203 3 14 8 39 10 55 3 17 7 40 9 53 5 22 3 23 -57
20 l-61 -3 -7 -35 c-4 -19 -10 -51 -13 -70 -3 -19 -8 -45 -10 -56 -2 -12 -7
-37 -10 -55 -8 -50 -15 -88 -26 -144 -11 -56 -18 -94 -26 -144 -3 -18 -8 -43
-10 -55 -6 -26 -9 -39 -25 -138 -7 -43 -16 -78 -21 -78 -4 0 -8 6 -9 13 -2 26
-19 127 -25 149 -3 9 -6 25 -8 35 -2 10 -7 36 -11 58 -4 22 -9 47 -10 55 -1 8
-10 56 -19 105 -10 50 -20 104 -23 120 -7 44 -9 57 -16 85 -7 24 -10 42 -23
123 l-7 37 -73 0 c-79 0 -76 3 -88 -70 -3 -19 -8 -46 -11 -60 -3 -14 -8 -41
-11 -60 -3 -19 -7 -42 -9 -50 -2 -8 -7 -29 -10 -47 -3 -17 -16 -87 -29 -155
-34 -171 -36 -179 -41 -213 -6 -34 -12 -67 -15 -75 -5 -11 -7 -26 -8 -49 -3
-41 -10 -20 -27 84 -20 119 -23 131 -31 170 -4 17 -8 41 -9 55 -1 14 -4 34 -8
45 -3 11 -8 36 -11 55 -3 19 -8 45 -10 56 -2 12 -7 37 -10 55 -3 19 -8 46 -11
62 -3 15 -7 39 -10 55 -3 15 -8 43 -10 62 -13 83 -10 80 -75 80 -33 0 -60 -4
-60 -9z"/>
<path d="M3098 6823 c-8 -15 -1 -779 7 -813 38 -168 175 -262 371 -254 163 6
296 114 320 262 4 20 7 211 8 425 l1 387 -61 0 -61 0 0 -396 c0 -386 -1 -397
-22 -443 -37 -77 -126 -122 -230 -114 -85 6 -160 47 -189 103 -23 45 -27 121
-26 488 l1 362 -58 0 c-32 0 -59 -3 -61 -7z"/>
<path d="M4135 6300 l0 -530 60 0 60 0 0 393 c-1 215 1 396 3 400 4 7 252
-407 252 -421 0 -3 6 -13 14 -21 7 -9 25 -36 39 -61 13 -25 56 -99 95 -165
l70 -120 59 -3 59 -3 0 531 0 530 -58 0 c-48 0 -58 -3 -59 -17 0 -10 -1 -190
-1 -400 -1 -320 -3 -381 -15 -372 -7 6 -13 16 -13 21 0 5 -16 34 -35 64 -19
30 -35 57 -35 60 0 2 -8 17 -19 32 -16 24 -124 205 -179 302 -11 19 -55 96
-99 170 l-79 135 -60 3 -59 3 0 -531z"/>
<path d="M5180 6299 l0 -531 223 4 c158 3 231 8 252 18 17 7 33 13 38 12 4 -1
7 3 7 8 0 6 5 10 11 10 25 0 105 88 136 150 l27 55 2 264 c1 218 -1 270 -14
305 -39 101 -108 172 -204 211 -54 22 -73 24 -268 25 l-210 1 0 -532z m448
386 c54 -25 105 -83 119 -135 5 -19 9 -141 9 -270 l-2 -235 -26 -41 c-61 -95
-110 -114 -290 -114 l-139 0 1 143 c1 78 1 147 0 152 -2 6 -1 14 0 20 4 21 1
376 -4 383 -2 4 -1 14 4 22 5 8 5 21 -1 31 -6 12 -5 20 1 24 6 4 8 15 5 26 -6
18 1 19 135 17 122 -1 147 -4 188 -23z"/>
<path d="M6229 6808 c-3 -72 -4 -1015 -1 -1025 3 -10 79 -13 334 -13 261 0
328 3 321 13 -4 6 -7 32 -8 57 l0 45 -262 3 -263 2 -1 38 c-2 168 2 307 11
312 12 7 106 4 120 -5 5 -3 10 -2 10 2 0 10 77 10 86 0 4 -3 14 -3 23 1 19 9
93 8 109 -2 6 -3 13 -3 15 2 3 4 27 7 54 6 l48 -2 -2 60 -1 60 -189 -2 c-103
0 -195 -1 -203 0 -8 0 -30 0 -47 0 -37 -1 -34 -16 -34 165 0 47 0 108 1 136
l0 50 58 -1 c31 -1 150 -1 263 -1 l206 1 0 60 0 60 -324 0 -323 0 -1 -22z"/>
<path d="M7188 6823 c-2 -4 -4 -242 -3 -528 l1 -520 59 0 60 0 1 195 c1 107 2
200 3 205 1 7 48 10 128 10 l126 0 33 -70 c47 -99 107 -231 134 -292 l24 -53
68 0 c38 0 67 3 65 8 -23 37 -197 427 -197 440 0 6 8 13 18 16 33 11 101 90
126 147 20 47 24 69 22 130 -4 80 -5 87 -28 139 -17 39 -88 120 -105 120 -6 0
-13 3 -15 8 -1 4 -21 16 -43 27 -35 17 -66 20 -256 23 -119 2 -219 0 -221 -5z
m416 -126 c50 -17 110 -78 125 -127 13 -43 12 -118 -1 -126 -4 -3 -8 -13 -8
-22 0 -21 -71 -89 -108 -103 -15 -6 -89 -12 -164 -13 -118 -1 -138 1 -139 14
-4 42 -5 367 -1 377 5 17 248 17 296 0z"/>
<path d="M8180 6300 l0 -530 60 0 60 0 0 403 1 402 109 -220 c60 -121 117
-226 127 -232 11 -8 29 -10 45 -5 24 6 43 38 138 230 61 122 112 222 113 222
1 0 2 -180 2 -399 l-1 -399 49 -4 c27 -2 54 0 60 4 8 5 12 149 12 523 0 284
-2 521 -6 526 -3 6 -32 9 -64 7 l-58 -3 -126 -252 c-69 -139 -129 -252 -132
-253 -4 0 -65 115 -135 255 l-129 255 -62 0 -63 0 0 -530z"/>
<path d="M9575 6818 c-74 -226 -85 -263 -87 -285 -1 -7 -5 -13 -10 -13 -4 0
-7 -3 -6 -7 1 -5 -2 -19 -6 -33 -26 -85 -139 -439 -146 -460 -4 -14 -11 -34
-15 -45 -4 -11 -9 -27 -11 -35 -2 -14 -28 -93 -41 -130 -15 -38 -12 -40 52
-40 l63 0 32 103 c17 56 34 110 36 120 5 15 23 17 207 17 l202 0 29 -98 c16
-53 32 -101 35 -107 3 -5 6 -14 6 -20 0 -5 30 -11 67 -13 l67 -3 -10 33 c-6
18 -13 40 -16 48 -3 8 -7 20 -9 25 -1 6 -9 29 -18 53 -8 23 -16 44 -16 47 0 3
-2 10 -5 17 -2 7 -31 101 -65 208 -34 107 -93 293 -131 413 l-70 217 -65 0
c-43 0 -66 -4 -69 -12z m99 -273 c1 -5 14 -49 30 -97 15 -48 27 -90 27 -93 0
-2 8 -25 19 -50 11 -25 17 -45 15 -45 -2 0 2 -17 9 -37 7 -21 16 -50 19 -65
l7 -26 -155 0 c-153 0 -155 0 -152 22 2 11 27 95 56 186 29 91 62 194 73 229
l21 64 14 -39 c8 -22 15 -43 17 -49z"/>
<path d="M4498 5325 c-1 -2 -26 -5 -55 -8 -126 -12 -249 -119 -283 -247 -11
-41 -17 -517 -7 -560 39 -168 176 -279 342 -275 75 2 108 11 165 43 87 49 151
137 168 233 4 24 8 157 7 294 l-1 250 -32 65 c-47 100 -150 183 -241 196 -20
3 -41 7 -48 9 -6 2 -13 2 -15 0z m42 -130 c50 -9 111 -55 144 -109 l30 -48 1
-246 c1 -180 -3 -257 -12 -287 -15 -42 -63 -105 -82 -105 -6 0 -11 -4 -11 -9
0 -14 -53 -32 -104 -35 -107 -7 -212 71 -233 173 -9 45 -8 444 1 491 5 24 19
61 32 82 26 42 100 89 146 94 17 2 33 6 36 9 3 2 8 3 12 0 4 -2 22 -7 40 -10z"/>
<path d="M7425 5311 c-82 -24 -114 -42 -162 -94 -97 -105 -84 -267 28 -362 37
-30 103 -63 249 -120 113 -45 182 -86 200 -119 29 -56 14 -157 -30 -198 -46
-43 -100 -61 -184 -61 -103 -1 -175 27 -208 82 -26 40 -25 39 -27 85 l-1 33
-61 0 -61 -1 5 -50 c8 -76 13 -91 46 -139 39 -58 111 -104 191 -123 36 -9 167
-9 219 0 179 30 289 215 233 389 -31 97 -102 147 -354 247 -119 48 -161 78
-182 130 -24 59 12 135 78 164 59 26 95 35 102 25 4 -7 10 -6 18 0 7 6 15 9
17 7 2 -2 23 -7 46 -11 53 -7 90 -26 120 -61 20 -24 28 -46 37 -109 3 -17 10
-20 62 -20 l59 1 -1 34 c-5 126 -79 221 -207 264 -49 16 -137 24 -155 12 -5
-3 -12 -2 -14 3 -1 4 -30 1 -63 -8z"/>
<path d="M8536 5323 c-2 -3 -20 -6 -41 -9 -67 -8 -151 -61 -200 -126 -67 -88
-74 -125 -71 -429 2 -261 2 -265 28 -319 37 -79 87 -131 161 -169 126 -64 270
-45 388 51 33 27 80 104 95 156 13 42 16 105 16 298 0 135 -4 259 -7 277 -26
118 -137 232 -251 257 -54 12 -112 18 -118 13z m74 -128 c71 -12 130 -61 161
-130 16 -37 19 -72 20 -277 0 -138 -4 -250 -10 -274 -23 -85 -131 -166 -212
-160 -19 2 -43 4 -55 5 -55 3 -179 128 -160 160 4 5 2 12 -2 15 -5 3 -8 117
-8 253 l2 248 27 51 c16 28 42 59 60 69 18 10 34 22 37 26 3 4 23 10 44 13 22
4 42 9 44 11 3 2 8 3 12 0 4 -2 21 -7 40 -10z"/>
<path d="M1914 5250 l0 -60 55 -1 c31 0 116 0 189 1 l132 0 0 -470 0 -470 33
-1 c39 -1 81 2 85 6 2 2 5 212 5 467 l2 463 130 2 c72 1 156 2 188 3 l57 0 0
60 0 60 -438 0 -438 0 0 -60z"/>
<path d="M3098 5274 c-2 -19 -2 -37 1 -39 3 -2 4 -110 1 -240 -3 -130 -4 -238
-2 -240 2 -2 3 -116 2 -254 l-1 -251 26 -1 c32 -1 72 -1 88 0 9 1 12 54 10
234 l-1 234 224 0 c195 0 224 -2 228 -16 2 -9 3 -112 2 -229 0 -118 2 -216 6
-218 6 -4 80 -8 105 -5 8 1 11 134 10 529 l-2 527 -56 3 c-52 3 -57 1 -60 -20
-3 -13 -4 -119 -3 -235 1 -189 -1 -213 -15 -214 -9 0 -110 -1 -226 -2 l-210
-1 -2 220 c-1 120 -2 227 -3 237 0 14 -10 17 -59 17 l-59 0 -4 -36z"/>
<path d="M5144 5301 c-7 -8 -4 -1051 4 -1052 50 -5 105 -2 109 5 3 5 6 187 6
405 l0 396 76 -155 c42 -85 79 -156 84 -158 4 -2 7 -9 7 -16 0 -6 15 -39 33
-72 30 -55 34 -59 67 -59 l35 0 110 222 c61 122 112 222 115 222 3 1 5 -173 4
-387 0 -213 1 -391 3 -397 2 -5 18 -9 36 -8 17 1 43 2 57 2 l26 1 -1 528 0
527 -61 1 -61 2 -64 -127 c-35 -69 -67 -127 -71 -129 -5 -2 -8 -8 -8 -13 0 -5
-27 -63 -59 -129 -38 -76 -62 -116 -67 -108 -5 7 -61 118 -126 247 -65 129
-123 240 -129 247 -9 11 -114 16 -125 5z"/>
<path d="M6249 5303 c-3 -24 -4 -1030 -1 -1043 3 -14 23 -16 109 -11 8 1 11
58 10 206 -2 176 0 205 13 205 8 1 76 2 150 4 138 4 169 9 231 42 123 67 190
235 146 370 -32 99 -80 154 -173 200 -59 29 -60 29 -271 32 -117 2 -213 0
-214 -5z m452 -147 c68 -45 93 -89 98 -168 3 -50 -27 -123 -60 -146 -10 -7
-24 -18 -31 -25 -7 -7 -22 -17 -33 -21 -27 -12 -305 -16 -306 -5 0 5 0 81 0
169 0 88 0 176 0 195 l1 35 143 -3 c140 -2 145 -3 188 -31z"/>
<path d="M9290 4780 c0 -346 3 -530 10 -531 6 0 31 -1 58 -1 l47 -1 2 249 c1
137 2 319 3 404 l0 155 40 -68 c22 -38 40 -72 40 -77 0 -5 4 -10 8 -12 5 -1
20 -23 34 -48 14 -25 63 -109 109 -188 46 -78 89 -150 94 -160 126 -219 149
-252 174 -253 14 0 38 -2 53 -3 15 -1 29 3 31 9 3 5 4 245 4 533 l0 522 -58 0
-59 0 0 -127 c-1 -71 -1 -254 0 -408 0 -293 0 -291 -36 -215 -5 8 -22 38 -39
65 -17 28 -35 57 -38 65 -4 8 -15 27 -25 42 -28 45 -254 431 -266 455 -6 13
-14 23 -18 23 -5 0 -8 5 -8 10 0 6 -11 28 -25 50 -24 39 -27 40 -80 40 l-55 0
0 -530z"/>
</g>
</svg>
